<svg width="151" height="151" viewBox="0 0 151 151" fill="none" xmlns="http://www.w3.org/2000/svg">
<path d="M139.14 81.0686L69.1119 11.8396L69.1307 11.8597C61.2375 3.96287 50.8441 -0.00706866 40.4965 9.44801e-06C30.1489 -0.00677374 19.7547 3.96287 11.8609 11.86C3.96198 19.7565 -0.00530326 30.1478 5.32042e-06 40.4962C-0.00530326 50.845 3.96198 61.2383 11.8611 69.1331L81.887 138.36L81.8681 138.34C89.7637 146.237 100.155 150.204 110.503 150.2C120.851 150.204 131.242 146.237 139.138 138.342C147.037 130.443 151.004 120.047 151 109.701C151.004 99.3543 147.038 88.9633 139.14 81.0686ZM23.4769 52.1554C16.7689 45.4489 16.7689 34.3934 23.5616 27.602C26.8502 24.3121 31.2242 22.5022 35.8784 22.5022L23.4769 52.1554ZM132.317 131.521C126.281 137.552 118.415 140.55 110.502 140.553C102.591 140.55 94.7228 137.552 88.6861 131.519L88.6704 131.504L88.6684 131.499L56.4019 99.6014C56.4966 98.9797 56.6393 98.2507 56.8455 97.4417C57.5922 94.453 59.0954 90.4276 61.3634 86.1701C64.7615 79.7733 69.881 72.8373 76.648 67.4901C83.3834 62.1765 91.6462 58.3782 101.888 57.8031L132.305 87.8727L132.32 87.8839C138.351 93.9218 141.349 101.788 141.355 109.7C141.349 117.613 138.353 125.481 132.317 131.521Z" fill="#415FAE"/>
</svg>
